<?xml version="1.0" encoding="UTF-8"?>
<svg version="1.1" xmlns="http://www.w3.org/2000/svg" width="105" height="103">
<path d="M0 0 C5.16623836 4.20111691 9.83757705 9.55999142 10.6953125 16.421875 C10.73419599 18.75488433 10.740176 21.08897301 10.6953125 23.421875 C11.4378125 23.64875 12.1803125 23.875625 12.9453125 24.109375 C17.50584036 26.28599057 19.53759807 29.69686732 21.4453125 34.234375 C24.48585266 43.28880121 22.01932747 51.7305535 18.6953125 60.421875 C15.08674076 67.00483879 10.20087255 72.36813903 4.6953125 77.421875 C6.06816406 77.78539063 6.06816406 77.78539063 7.46875 78.15625 C9.25152344 78.65898437 9.25152344 78.65898437 11.0703125 79.171875 C12.25367187 79.49671875 13.43703125 79.8215625 14.65625 80.15625 C17.6953125 81.421875 17.6953125 81.421875 19.109375 83.5625 C19.30273438 84.17609375 19.49609375 84.7896875 19.6953125 85.421875 C6.7518839 91.69563098 -7.50903042 91.80542666 -21.6171875 91.734375 C-22.33403717 91.73321686 -23.05088684 91.73205872 -23.78945923 91.73086548 C-50.95799279 91.64425597 -50.95799279 91.64425597 -62.3046875 85.421875 C-61.71875 83.5625 -61.71875 83.5625 -60.3046875 81.421875 C-57.265625 80.15625 -57.265625 80.15625 -53.6796875 79.171875 C-51.89691406 78.66914063 -51.89691406 78.66914063 -50.078125 78.15625 C-49.16289063 77.91390625 -48.24765625 77.6715625 -47.3046875 77.421875 C-47.81257813 77.009375 -48.32046875 76.596875 -48.84375 76.171875 C-58.43000639 68.12947264 -64.431065 59.06936346 -67.1171875 46.671875 C-67.1790625 45.599375 -67.2409375 44.526875 -67.3046875 43.421875 C-67.3871875 42.225625 -67.4696875 41.029375 -67.5546875 39.796875 C-67.28817155 27.24639645 -62.51996921 15.73994465 -53.9921875 6.546875 C-39.829177 -6.41480871 -16.62520919 -11.38404155 0 0 Z " fill="#1A1930" transform="translate(75.3046875,6.578125)"/>
<path d="M0 0 C0.71293213 -0.00563965 1.42586426 -0.0112793 2.16040039 -0.01708984 C6.87761619 0.04758211 10.83084107 0.8381928 15.3125 2.3125 C15.3125 2.6425 15.3125 2.9725 15.3125 3.3125 C14.33410156 3.47685547 14.33410156 3.47685547 13.3359375 3.64453125 C5.96074449 4.97425616 5.96074449 4.97425616 -0.6875 8.3125 C-1.120625 9.42625 -1.120625 9.42625 -1.5625 10.5625 C-3.10572829 14.33483582 -5.69274547 16.12926194 -8.8125 18.6640625 C-10.90799915 20.36306095 -10.90799915 20.36306095 -12.6875 23.3125 C-9.43766865 22.22465032 -9.43766865 22.22465032 -6.6875 20.3125 C7.65448539 19.27524932 17.59122957 23.15125774 30.3125 29.3125 C29.6525 30.6325 28.9925 31.9525 28.3125 33.3125 C24.87515937 33.39953823 21.43810163 33.45290272 18 33.5 C17.02353516 33.52513672 16.04707031 33.55027344 15.04101562 33.57617188 C13.63432617 33.59067383 13.63432617 33.59067383 12.19921875 33.60546875 C11.33514404 33.6211792 10.47106934 33.63688965 9.58081055 33.65307617 C7.3125 33.3125 7.3125 33.3125 5.50708008 31.98168945 C4.3125 30.3125 4.3125 30.3125 4.3125 27.3125 C2.87004362 27.71167032 1.43361159 28.13264517 0 28.5625 C-0.80050781 28.79453125 -1.60101563 29.0265625 -2.42578125 29.265625 C-5.20543138 30.55223335 -6.20618201 31.63958552 -7.6875 34.3125 C-8.34593614 38.04363813 -8.27773114 41.57247767 -7.6875 45.3125 C-5.87320146 48.21403295 -5.87320146 48.21403295 -2.6875 49.3125 C1.19003329 49.81039338 4.57819444 49.55726852 8.3125 48.3125 C10.20720816 48.2439505 12.1041834 48.22769628 14 48.25 C14.99386719 48.25902344 15.98773438 48.26804688 17.01171875 48.27734375 C18.15060547 48.29474609 18.15060547 48.29474609 19.3125 48.3125 C19.77966875 54.85286249 18.59707654 58.69310399 15.3125 64.3125 C14.9825 64.9725 14.6525 65.6325 14.3125 66.3125 C9.06479521 68.71001369 4.07687349 68.54790942 -1.5625 68.4375 C-2.44164062 68.42847656 -3.32078125 68.41945313 -4.2265625 68.41015625 C-6.3803271 68.38674577 -8.53395014 68.3508801 -10.6875 68.3125 C-9.58121468 69.28737158 -8.47109476 70.25789281 -7.359375 71.2265625 C-6.7415918 71.76748535 -6.12380859 72.3084082 -5.48730469 72.86572266 C-0.75966211 76.66604956 4.65542743 76.74414035 10.4921875 76.6328125 C16.07234579 75.99905491 20.51408458 73.79619272 24.8125 70.25 C27.60619508 66.64147718 27.50282736 63.22827524 27.5625 58.8125 C27.58828125 57.6678125 27.6140625 56.523125 27.640625 55.34375 C27.5641879 52.35770009 27.5641879 52.35770009 26.02734375 50.48046875 C23.35162604 48.65805509 20.42658567 48.07633233 17.3125 47.3125 C20.83919804 45.13755845 23.77531537 45.0139921 27.875 45 C29.01066406 44.98324219 30.14632812 44.96648438 31.31640625 44.94921875 C34.3125 45.3125 34.3125 45.3125 36.1875 46.578125 C38.37264977 49.94689756 37.82522064 53.46113332 37.3125 57.3125 C35.15470697 66.37523071 29.47841427 73.76551004 21.83203125 79.015625 C12.74407711 84.17485508 2.60492206 85.07805305 -7.6875 83.3125 C-11.80085721 81.07984889 -13.5936133 78.4361153 -15.6875 74.3125 C-16.18121094 73.34957031 -16.67492187 72.38664062 -17.18359375 71.39453125 C-22.37669783 60.02266312 -25.18056111 46.2380652 -21.6875 33.9375 C-21.3575 33.07125 -21.0275 32.205 -20.6875 31.3125 C-21.615625 31.003125 -22.54375 30.69375 -23.5 30.375 C-25.5625 29.6875 -27.625 29 -29.6875 28.3125 C-31.57963369 30.69823379 -32.71141783 32.38425348 -33.6875 35.3125 C-34.6775 34.9825 -35.6675 34.6525 -36.6875 34.3125 C-37.05394578 32.75283408 -37.40510862 31.18957349 -37.75 29.625 C-37.94722656 28.75488281 -38.14445312 27.88476562 -38.34765625 26.98828125 C-38.88039035 22.79376567 -38.40138988 20.33861506 -35.97265625 16.84765625 C-25.81338943 5.5456951 -15.16916765 0.11431174 0 0 Z " fill="#F1C921" transform="translate(53.6875,0.6875)"/>
<path d="M0 0 C6.22822054 5.28044785 11.32944484 11.03631948 12.05078125 19.5 C12.06074201 21.14684589 11.9777293 22.79383115 11.875 24.4375 C12.6175 24.664375 13.36 24.89125 14.125 25.125 C18.68552786 27.30161557 20.71728557 30.71249232 22.625 35.25 C24.62009005 40.99672678 24.34843737 46.54375051 22.875 52.4375 C22.545 52.4375 22.215 52.4375 21.875 52.4375 C21.606875 51.344375 21.33875 50.25125 21.0625 49.125 C19.80391323 45.10693394 19.80391323 45.10693394 16.875 42.4375 C13.45267028 41.29672343 10.78826783 41.33934883 7.1875 41.375 C6.00800781 41.38402344 4.82851562 41.39304688 3.61328125 41.40234375 C2.70964844 41.41394531 1.80601563 41.42554688 0.875 41.4375 C2.050625 42.365625 2.050625 42.365625 3.25 43.3125 C5.875 45.4375 5.875 45.4375 7.875 47.4375 C8.17578125 50.30078125 8.17578125 50.30078125 8.1875 53.75 C8.20425781 54.88050781 8.22101563 56.01101562 8.23828125 57.17578125 C7.67658719 62.21894836 5.67286177 64.67509875 2.0625 68.125 C-4.32600889 72.75980057 -10.43548006 73.11566534 -18.125 72.4375 C-23.12064194 71.49492605 -26.12724244 69.75493341 -29.35546875 65.81640625 C-29.87906982 65.18420166 -30.4026709 64.55199707 -30.94213867 63.90063477 C-31.33248291 63.41780029 -31.72282715 62.93496582 -32.125 62.4375 C-31.55056152 62.44797363 -30.97612305 62.45844727 -30.38427734 62.46923828 C-27.75623023 62.51107099 -25.12825346 62.536912 -22.5 62.5625 C-21.59636719 62.57925781 -20.69273438 62.59601563 -19.76171875 62.61328125 C-14.87076626 62.64898163 -10.62499503 62.61515033 -6.125 60.4375 C-4.79579974 57.53325344 -4.79579974 57.53325344 -4.125 54.4375 C-3.465 53.4475 -2.805 52.4575 -2.125 51.4375 C-1.67360541 49.3882906 -1.67360541 49.3882906 -1.5 47.25 C-1.314375 45.3628125 -1.314375 45.3628125 -1.125 43.4375 C-2.89619803 43.57883499 -4.66695287 43.72573208 -6.4375 43.875 C-7.42363281 43.95621094 -8.40976563 44.03742187 -9.42578125 44.12109375 C-12.21875599 44.35562559 -12.21875599 44.35562559 -15.125 45.4375 C-20.02715793 45.91967947 -22.21355366 45.909499 -26.625 43.625 C-29.36869514 41.00874426 -29.5995908 38.65260723 -29.75 34.9375 C-29.54413536 31.29565653 -29.21351975 29.59240956 -27.375 26.375 C-24.39791313 23.81139742 -22.43526124 22.66120314 -18.5625 22 C-17.758125 22.144375 -16.95375 22.28875 -16.125 22.4375 C-15.79757813 23.26121094 -15.47015625 24.08492187 -15.1328125 24.93359375 C-13.41664297 27.61595865 -13.41664297 27.61595865 -10.95043945 27.89672852 C-8.13978005 28.03984591 -5.37550537 28.01995985 -2.5625 27.9375 C-1.59119141 27.94007812 -0.61988281 27.94265625 0.38085938 27.9453125 C4.15203401 27.925033 4.15203401 27.925033 7.875 27.4375 C8.535 26.4475 9.195 25.4575 9.875 24.4375 C9.34132812 24.26734375 8.80765625 24.0971875 8.2578125 23.921875 C3.12340717 22.25186081 -1.87726367 20.37617307 -6.86328125 18.3046875 C-11.36449833 16.57883225 -15.28328353 16.24904724 -20.125 16.1875 C-21.9503125 16.14882813 -21.9503125 16.14882813 -23.8125 16.109375 C-27.38648746 16.46340206 -28.42762534 17.24588309 -31.125 19.4375 C-32.115 19.1075 -33.105 18.7775 -34.125 18.4375 C-27.67359967 10.97127265 -27.67359967 10.97127265 -24.8125 8.1875 C-23.03363552 6.55607335 -23.03363552 6.55607335 -22.30859375 4.46875 C-18.30702895 -2.39862193 -6.39484946 -3.19742473 0 0 Z " fill="#1874B9" transform="translate(74.125,5.5625)"/>
<path d="M0 0 C7.09461792 1.95713598 13.71390138 5.3334851 20.31640625 8.53125 C19.65640625 9.85125 18.99640625 11.17125 18.31640625 12.53125 C14.87906562 12.61828823 11.44200788 12.67165272 8.00390625 12.71875 C6.53920898 12.75645508 6.53920898 12.75645508 5.04492188 12.79492188 C3.63823242 12.80942383 3.63823242 12.80942383 2.203125 12.82421875 C1.33905029 12.8399292 0.47497559 12.85563965 -0.4152832 12.87182617 C-2.68359375 12.53125 -2.68359375 12.53125 -4.48901367 11.20043945 C-5.68359375 9.53125 -5.68359375 9.53125 -5.68359375 6.53125 C-7.12605013 6.93042032 -8.56248216 7.35139517 -9.99609375 7.78125 C-11.19685547 8.12929688 -11.19685547 8.12929688 -12.421875 8.484375 C-15.20152513 9.77098335 -16.20227576 10.85833552 -17.68359375 13.53125 C-18.34202989 17.26238813 -18.27382489 20.79122767 -17.68359375 24.53125 C-15.86929521 27.43278295 -15.86929521 27.43278295 -12.68359375 28.53125 C-8.80606046 29.02914338 -5.41789931 28.77601852 -1.68359375 27.53125 C0.21111441 27.4627005 2.10808965 27.44644628 4.00390625 27.46875 C4.99777344 27.47777344 5.99164063 27.48679687 7.015625 27.49609375 C8.15451172 27.51349609 8.15451172 27.51349609 9.31640625 27.53125 C9.783575 34.07161249 8.60098279 37.91185399 5.31640625 43.53125 C4.82140625 44.52125 4.82140625 44.52125 4.31640625 45.53125 C-0.75070661 47.79832561 -5.4379524 47.80247237 -10.87109375 47.71875 C-11.67740234 47.71810547 -12.48371094 47.71746094 -13.31445312 47.71679688 C-16.76670963 47.69096952 -19.37520316 47.63404686 -22.68359375 46.53125 C-28.42263411 38.15756122 -29.62764827 28.43230964 -28.68359375 18.53125 C-24.73312392 2.32210574 -16.33885288 -2.8539481 0 0 Z " fill="#F3F4F6" transform="translate(63.68359375,21.46875)"/>
<path d="M0 0 C0.66 0 1.32 0 2 0 C2.03738281 0.68707031 2.07476562 1.37414062 2.11328125 2.08203125 C2.21189453 3.43361328 2.21189453 3.43361328 2.3125 4.8125 C2.39951172 6.15248047 2.39951172 6.15248047 2.48828125 7.51953125 C3.06313581 10.30604 3.8206856 11.24135754 6 13 C6.0825 12.236875 6.165 11.47375 6.25 10.6875 C7.14615794 7.47626739 8.21611025 6.70625501 11 5 C13.64 6.32 16.28 7.64 19 9 C18.835 9.86625 18.67 10.7325 18.5 11.625 C16.4273857 27.06133635 19.84202353 40.5576659 25 55 C21.89448334 55 20.64738916 54.4606285 18 53 C18 52.34 18 51.68 18 51 C17.4121875 50.90847656 16.824375 50.81695312 16.21875 50.72265625 C10.90049298 48.99047747 7.23440489 42.81290687 4.6875 38.0625 C2.97824472 34.41222601 2.19620639 30.75717222 1.58984375 26.78515625 C1.39519531 26.19605469 1.20054688 25.60695313 1 25 C0.01 24.67 -0.98 24.34 -2 24 C-2.6875 21.9375 -2.6875 21.9375 -3 20 C-3.66 21.98 -4.32 23.96 -5 26 C-5.33 26 -5.66 26 -6 26 C-5.69962894 16.55333011 -4.2468829 8.4937658 0 0 Z " fill="#284086" transform="translate(14,23)"/>
<path d="M0 0 C0.71293213 -0.00563965 1.42586426 -0.0112793 2.16040039 -0.01708984 C6.87761619 0.04758211 10.83084107 0.8381928 15.3125 2.3125 C15.3125 2.6425 15.3125 2.9725 15.3125 3.3125 C14.42111328 3.42464844 14.42111328 3.42464844 13.51171875 3.5390625 C2.53625056 5.28011655 -5.56182196 10.10153416 -12.73828125 18.56640625 C-15.81436578 22.90004839 -17.72745498 27.38077383 -19.6875 32.3125 C-24.6375 30.3325 -24.6375 30.3325 -29.6875 28.3125 C-32.74020463 31.94356761 -32.74020463 31.94356761 -33.6875 35.3125 C-34.6775 34.9825 -35.6675 34.6525 -36.6875 34.3125 C-37.05394578 32.75283408 -37.40510862 31.18957349 -37.75 29.625 C-37.94722656 28.75488281 -38.14445312 27.88476562 -38.34765625 26.98828125 C-38.88039035 22.79376567 -38.40138988 20.33861506 -35.97265625 16.84765625 C-25.81338943 5.5456951 -15.16916765 0.11431174 0 0 Z " fill="#B8D9F1" transform="translate(53.6875,0.6875)"/>
<path d="M0 0 C9.48421053 -0.55789474 9.48421053 -0.55789474 14 3 C16.75874035 5.75874035 16.29943408 7.46676471 16.3125 11.3125 C16.32925781 12.44300781 16.34601563 13.57351562 16.36328125 14.73828125 C15.80158719 19.78144836 13.79786177 22.23759875 10.1875 25.6875 C3.79899111 30.32230057 -2.31048006 30.67816534 -10 30 C-14.99564194 29.05742605 -18.00224244 27.31743341 -21.23046875 23.37890625 C-21.75406982 22.74670166 -22.2776709 22.11449707 -22.81713867 21.46313477 C-23.20748291 20.98030029 -23.59782715 20.49746582 -24 20 C-23.42556152 20.01047363 -22.85112305 20.02094727 -22.25927734 20.03173828 C-19.63123023 20.07357099 -17.00325346 20.099412 -14.375 20.125 C-13.47136719 20.14175781 -12.56773438 20.15851563 -11.63671875 20.17578125 C-6.74576626 20.21148163 -2.49999503 20.17765033 2 18 C3.32920026 15.09575344 3.32920026 15.09575344 4 12 C4.66 11.01 5.32 10.02 6 9 C6.45139459 6.9507906 6.45139459 6.9507906 6.625 4.8125 C6.74875 3.554375 6.8725 2.29625 7 1 C4.69 1 2.38 1 0 1 C0 0.67 0 0.34 0 0 Z " fill="#B5B6BC" transform="translate(66,48)"/>
<path d="M0 0 C6.22822054 5.28044785 11.32944484 11.03631948 12.05078125 19.5 C12.06074201 21.14684589 11.9777293 22.79383115 11.875 24.4375 C8.2346062 23.2240354 8.03380834 22.35736217 6.1875 19.125 C3.09277715 14.38479037 0.43000479 11.8149237 -5.125 10.4375 C-13.70849854 9.29449891 -21.03141271 10.2337101 -28.125 15.4375 C-29.87012996 17.50550691 -29.87012996 17.50550691 -31.125 19.4375 C-32.115 19.1075 -33.105 18.7775 -34.125 18.4375 C-27.67359967 10.97127265 -27.67359967 10.97127265 -24.8125 8.1875 C-23.03363552 6.55607335 -23.03363552 6.55607335 -22.30859375 4.46875 C-18.30702895 -2.39862193 -6.39484946 -3.19742473 0 0 Z " fill="#7F181C" transform="translate(74.125,5.5625)"/>
<path d="M0 0 C3.38231081 1.39957689 5.27928642 2.73064421 7 6 C7.980937 14.26789759 4.9633577 20.45418227 0.25 27.125 C-6.28967448 35.37353414 -14.5653116 41.9802622 -25.26171875 43.2734375 C-32.0945802 43.55951544 -36.37460505 41.80461494 -42 38 C-38.27263977 35.57768529 -35.15992769 35.92114508 -30.8125 36.125 C-21.0425947 36.33322074 -14.89829871 33.53935358 -7.7890625 26.92578125 C-1.53610292 20.19497541 1.24570275 13.09464364 1.16796875 3.953125 C1.11418226 1.92092196 1.11418226 1.92092196 0 0 Z " fill="#B53526" transform="translate(89,47)"/>
<path d="M0 0 C0.66 0 1.32 0 2 0 C2.03738281 0.68707031 2.07476562 1.37414062 2.11328125 2.08203125 C2.21189453 3.43361328 2.21189453 3.43361328 2.3125 4.8125 C2.39951172 6.15248047 2.39951172 6.15248047 2.48828125 7.51953125 C3.06313581 10.30604 3.8206856 11.24135754 6 13 C6.0825 12.236875 6.165 11.47375 6.25 10.6875 C7.14615794 7.47626739 8.21611025 6.70625501 11 5 C13.64 6.32 16.28 7.64 19 9 C18.84660156 9.96035156 18.69320312 10.92070313 18.53515625 11.91015625 C17.89288765 16.40603647 17.66031389 20.90451572 17.4375 25.4375 C17.39431641 26.26443359 17.35113281 27.09136719 17.30664062 27.94335938 C17.20161967 29.96209549 17.10041441 31.98102951 17 34 C16.67 34 16.34 34 16 34 C15.67 30.37 15.34 26.74 15 23 C13.700625 22.690625 12.40125 22.38125 11.0625 22.0625 C7.125 21.125 7.125 21.125 6 20 C5.01 22.475 5.01 22.475 4 25 C2.02 24.67 0.04 24.34 -2 24 C-2.33 22.68 -2.66 21.36 -3 20 C-3.66 21.98 -4.32 23.96 -5 26 C-5.33 26 -5.66 26 -6 26 C-5.69962894 16.55333011 -4.2468829 8.4937658 0 0 Z " fill="#2389C6" transform="translate(14,23)"/>
<path d="M0 0 C1.4731994 2.74997221 2.22404875 4.89619499 3 8 C6.63 8.66 10.26 9.32 14 10 C14 11.32 14 12.64 14 14 C12.35 14.33 10.7 14.66 9 15 C9 15.66 9 16.32 9 17 C9.90878906 16.7834375 10.81757812 16.566875 11.75390625 16.34375 C21.02968871 14.28880742 29.49708439 13.63605855 39 14 C39.28617188 13.37609375 39.57234375 12.7521875 39.8671875 12.109375 C41.19584023 9.63533198 42.68676698 8.54215535 45 7 C48.43561431 13.87122862 48.89762159 19.40951365 47 27 C46.67 27 46.34 27 46 27 C45.731875 25.906875 45.46375 24.81375 45.1875 23.6875 C43.92891323 19.66943394 43.92891323 19.66943394 41 17 C32.3613428 14.1204476 23.22560618 16.06953081 14.73364258 18.5769043 C8.60838815 20.33514444 3.31131319 21.19693004 -2.5 18.1875 C-4.56101097 16.24410107 -4.97457103 15.15552541 -5.4375 12.32421875 C-5.59499358 4.89249037 -5.59499358 4.89249037 -3 1 C-2.01 0.67 -1.02 0.34 0 0 Z " fill="#294490" transform="translate(50,31)"/>
<path d="M0 0 C7.09461792 1.95713598 13.71390138 5.3334851 20.31640625 8.53125 C19.65640625 9.85125 18.99640625 11.17125 18.31640625 12.53125 C14.87906562 12.61828823 11.44200788 12.67165272 8.00390625 12.71875 C6.53920898 12.75645508 6.53920898 12.75645508 5.04492188 12.79492188 C3.63823242 12.80942383 3.63823242 12.80942383 2.203125 12.82421875 C1.33905029 12.8399292 0.47497559 12.85563965 -0.4152832 12.87182617 C-2.68359375 12.53125 -2.68359375 12.53125 -4.48901367 11.20043945 C-5.68359375 9.53125 -5.68359375 9.53125 -5.68359375 6.53125 C-8.86584914 4.94012231 -11.14165123 5.19392214 -14.68359375 5.53125 C-17.15880997 6.72436893 -19.44678961 8.06243636 -21.765625 9.53515625 C-22.39855469 9.86386719 -23.03148437 10.19257813 -23.68359375 10.53125 C-24.34359375 10.20125 -25.00359375 9.87125 -25.68359375 9.53125 C-24.9417788 8.42156779 -24.18969828 7.31874544 -23.43359375 6.21875 C-23.0159375 5.60386719 -22.59828125 4.98898438 -22.16796875 4.35546875 C-16.5199924 -2.58559693 -8.22527205 -1.43672874 0 0 Z " fill="#58B6E2" transform="translate(63.68359375,21.46875)"/>
<path d="M0 0 C-2.01223155 1.01513924 -4.02735993 2.01275076 -6.0703125 2.96484375 C-6.74835937 3.28582031 -7.42640625 3.60679688 -8.125 3.9375 C-8.80820312 4.25589844 -9.49140625 4.57429688 -10.1953125 4.90234375 C-12.31813594 6.01935177 -12.31813594 6.01935177 -14 9 C-14.32646651 11.31832548 -14.43961437 13.60403705 -14.55859375 15.94140625 C-15 18 -15 18 -18 20 C-18.50621513 22.02276681 -18.50621513 22.02276681 -18.51171875 24.3515625 C-18.54716797 25.20234375 -18.58261719 26.053125 -18.61914062 26.9296875 C-18.64169922 27.81914063 -18.66425781 28.70859375 -18.6875 29.625 C-18.72166016 30.5221875 -18.75582031 31.419375 -18.79101562 32.34375 C-18.87362402 34.56237538 -18.94272719 36.7805994 -19 39 C-18.360625 39.103125 -17.72125 39.20625 -17.0625 39.3125 C-16.0415625 39.6528125 -16.0415625 39.6528125 -15 40 C-14.67 40.99 -14.34 41.98 -14 43 C-16.25 43 -16.25 43 -19 42 C-25.4062167 33.09644459 -25.97692515 22.13224183 -24.7109375 11.59375 C-23.51032446 6.93465464 -21.04336702 4.9860074 -17 2.5 C-11.26380553 -0.33363412 -6.29278196 -0.65727316 0 0 Z " fill="#E6E6E9" transform="translate(60,26)"/>
<path d="M0 0 C1.13566406 -0.01675781 2.27132812 -0.03351562 3.44140625 -0.05078125 C6.4375 0.3125 6.4375 0.3125 8.3125 1.578125 C10.49764977 4.94689756 9.95022064 8.46113332 9.4375 12.3125 C7.44946808 20.66223407 2.55317177 26.4683735 -3.5625 32.3125 C-4.5525 32.8075 -4.5525 32.8075 -5.5625 33.3125 C-5.8125 30.5625 -5.8125 30.5625 -5.5625 27.3125 C-3.625 25.125 -3.625 25.125 -1.5625 23.3125 C-0.45028045 19.97584135 -0.35996221 17.32470338 -0.3125 13.8125 C-0.28671875 12.6678125 -0.2609375 11.523125 -0.234375 10.34375 C-0.3108121 7.35770009 -0.3108121 7.35770009 -1.84765625 5.48046875 C-4.52337396 3.65805509 -7.44841433 3.07633233 -10.5625 2.3125 C-7.03580196 0.13755845 -4.09968463 0.0139921 0 0 Z " fill="#E79B25" transform="translate(81.5625,45.6875)"/>
<path d="M0 0 C4.28975603 2.51374239 6.92066682 6.37713912 9.5625 10.5 C6.20661987 11.61862671 5.66644986 11.42233352 2.5 10.25 C1.29730469 9.83041016 1.29730469 9.83041016 0.0703125 9.40234375 C-1.54294356 8.82187311 -3.15268986 8.2315028 -4.7578125 7.62890625 C-12.04939147 5.11415377 -21.53894149 3.43119131 -28.8515625 6.51953125 C-29.63660156 7.00486328 -29.63660156 7.00486328 -30.4375 7.5 C-22.55757366 -1.36491714 -11.43651062 -4.91704103 0 0 Z " fill="#58616D" transform="translate(73.4375,16.5)"/>
<path d="M0 0 C0.74056641 0.00451172 1.48113281 0.00902344 2.24414062 0.01367188 C4.05862899 0.02537825 5.87307534 0.04331102 7.6875 0.0625 C4.6875 2.0625 4.6875 2.0625 1.4375 3.25 C-1.73554125 4.525827 -3.35826646 6.09646587 -5.5625 8.6875 C-8.57133891 11.94878118 -10.59218183 12.5432309 -15 12.8125 C-15.91136719 12.80734375 -16.82273437 12.8021875 -17.76171875 12.796875 C-20.78016653 13.11120034 -22.07618502 14.07233679 -24.3125 16.0625 C-24.3125 12.72916667 -24.3125 9.39583333 -24.3125 6.0625 C-22.58648621 5.24332358 -20.8565353 4.43243984 -19.125 3.625 C-18.16207031 3.17253906 -17.19914062 2.72007812 -16.20703125 2.25390625 C-10.79715058 0.02716724 -5.79399374 -0.06731181 0 0 Z " fill="#F4FAFD" transform="translate(53.3125,0.9375)"/>
<path d="M0 0 C1.64846769 0.44876616 3.29373455 0.90930488 4.9375 1.375 C5.85402344 1.63023438 6.77054688 1.88546875 7.71484375 2.1484375 C10 3 10 3 11 5 C7.8737157 9.1088308 6.06779653 11.45857552 1 13 C-6.6510766 13.83290201 -12.87275163 13.87678952 -19 9 C-25 2.86607143 -25 2.86607143 -25 1 C-22.6875 0.6875 -22.6875 0.6875 -20 1 C-19.66742188 1.82113281 -19.33484375 2.64226563 -18.9921875 3.48828125 C-17.29264771 6.17954263 -17.29264771 6.17954263 -14.82641602 6.4597168 C-12.0154852 6.60227578 -9.2507496 6.58246701 -6.4375 6.5 C-5.46619141 6.50257812 -4.49488281 6.50515625 -3.49414062 6.5078125 C0.27703401 6.487533 0.27703401 6.487533 4 6 C4.66 5.01 5.32 4.02 6 3 C4.02 2.34 2.04 1.68 0 1 C0 0.67 0 0.34 0 0 Z " fill="#2788C6" transform="translate(78,27)"/>
<path d="M0 0 C0.99 0.33 1.98 0.66 3 1 C1.95199219 1.93972656 1.95199219 1.93972656 0.8828125 2.8984375 C-0.02726562 3.71570313 -0.93734375 4.53296875 -1.875 5.375 C-2.77992187 6.18710938 -3.68484375 6.99921875 -4.6171875 7.8359375 C-6.10896183 9.19076205 -7.57505435 10.57505435 -9 12 C-8.67673447 15.59679066 -8.67673447 15.59679066 -8 19 C-4.66462511 17.88820837 -3.36292656 16.52588702 -1 14 C1.97 14.99 4.94 15.98 8 17 C7.45276317 20.37462715 6.9451 22.08235 5 25 C0.545 23.02 0.545 23.02 -4 21 C-5.89213369 23.38573379 -7.02391783 25.07175348 -8 28 C-8.99 27.67 -9.98 27.34 -11 27 C-11.36644578 25.44033408 -11.71760862 23.87707349 -12.0625 22.3125 C-12.25972656 21.44238281 -12.45695313 20.57226562 -12.66015625 19.67578125 C-13.21650781 15.29531209 -12.71672338 12.9522998 -10.0390625 9.39453125 C-9.24242187 8.54246094 -8.44578125 7.69039062 -7.625 6.8125 C-6.83351563 5.95269531 -6.04203125 5.09289062 -5.2265625 4.20703125 C-3 2 -3 2 0 0 Z " fill="#45AEE0" transform="translate(28,8)"/>
<path d="M0 0 C0.33 1.32 0.66 2.64 1 4 C-0.0828125 4.92232422 -0.0828125 4.92232422 -1.1875 5.86328125 C-2.115625 6.67152344 -3.04375 7.47976562 -4 8.3125 C-4.928125 9.11300781 -5.85625 9.91351563 -6.8125 10.73828125 C-9.3476073 12.83498271 -9.3476073 12.83498271 -9 16 C-9.76044359 18.02036675 -10.5803958 20.01870531 -11.4375 22 C-16.32631352 33.36544681 -15.94498808 43.28244611 -12 55 C-12.99 54.67 -13.98 54.34 -15 54 C-19.56205017 43.13721621 -20.54618666 30.70213397 -16.25390625 19.76953125 C-12.46468583 11.40019394 -7.07203259 5.76763547 0 0 Z " fill="#E9B42B" transform="translate(51,9)"/>
<path d="M0 0 C0 1.65 0 3.3 0 5 C-7.26509001 9.24939227 -12.47702806 10.71734001 -21 10 C-25.97142857 8.02857143 -25.97142857 8.02857143 -28 6 C-28.04063832 4.33382885 -28.042721 2.66611905 -28 1 C-26.906875 1.33 -25.81375 1.66 -24.6875 2 C-14.97793337 4.38872524 -8.74747053 0 0 0 Z " fill="#F6EAAB" transform="translate(76,74)"/>
<path d="M0 0 C1.1328125 3.6953125 1.1328125 3.6953125 -0.0625 6.4375 C-3.80366179 11.38548817 -7.88174168 14.7301728 -14 16 C-20.78900201 16.57603653 -25.95939833 16.22165422 -32 13 C-32 12.67 -32 12.34 -32 12 C-31.17757812 11.97421875 -30.35515625 11.9484375 -29.5078125 11.921875 C-17.17505208 11.29526823 -9.33634395 8.02835374 0 0 Z " fill="#686E77" transform="translate(81,62)"/>
<path d="M0 0 C-0.33 0.99 -0.66 1.98 -1 3 C-1.99 3.33 -2.98 3.66 -4 4 C-4 4.66 -4 5.32 -4 6 C-4.66 6 -5.32 6 -6 6 C-6 6.66 -6 7.32 -6 8 C-4.948125 8.12375 -3.89625 8.2475 -2.8125 8.375 C0.45958771 8.91140782 3.00536076 9.63880035 6 11 C5.67 11.66 5.34 12.32 5 13 C2.12270893 12.57474 -0.75120078 12.13527802 -3.625 11.6875 C-4.43324219 11.56955078 -5.24148437 11.45160156 -6.07421875 11.33007812 C-10.88753167 10.56699193 -14.71855586 9.47326142 -19 7 C-18.43359375 5.14453125 -18.43359375 5.14453125 -17 3 C-13.84765625 1.69921875 -13.84765625 1.69921875 -10.0625 0.6875 C-8.81597656 0.34074219 -7.56945312 -0.00601563 -6.28515625 -0.36328125 C-3 -1 -3 -1 0 0 Z " fill="#1C1719" transform="translate(32,85)"/>
<path d="M0 0 C2.89270784 1.21617408 5.72875294 2.48762336 8.5390625 3.8828125 C5.46456935 6.925112 2.85337247 7.26945651 -1.40234375 7.29296875 C-2.12292969 7.28136719 -2.84351563 7.26976563 -3.5859375 7.2578125 C-4.31425781 7.26941406 -5.04257812 7.28101562 -5.79296875 7.29296875 C-7.90625 7.28125 -7.90625 7.28125 -11.4609375 6.8828125 C-12.1209375 5.8928125 -12.7809375 4.9028125 -13.4609375 3.8828125 C-14.4509375 3.5528125 -15.4409375 3.2228125 -16.4609375 2.8828125 C-16.7909375 1.8928125 -17.1209375 0.9028125 -17.4609375 -0.1171875 C-12.26730186 -2.71400532 -5.3234242 -1.71839652 0 0 Z " fill="#F5F6F7" transform="translate(57.4609375,62.1171875)"/>
<path d="M0 0 C2.3916799 0.67643472 4.64926325 1.32424499 6.89453125 2.390625 C7.38953125 3.380625 7.38953125 3.380625 7.89453125 4.390625 C6.92012085 4.39678833 6.92012085 4.39678833 5.92602539 4.40307617 C2.93548413 4.43630736 -0.05309853 4.50698105 -3.04296875 4.578125 C-4.06455078 4.58392578 -5.08613281 4.58972656 -6.13867188 4.59570312 C-12.62567245 4.7822303 -16.93287774 5.80530348 -22.36547852 9.4230957 C-22.93967529 9.74238037 -23.51387207 10.06166504 -24.10546875 10.390625 C-24.76546875 10.060625 -25.42546875 9.730625 -26.10546875 9.390625 C-25.3636538 8.28094279 -24.61157328 7.17812044 -23.85546875 6.078125 C-23.4378125 5.46324219 -23.02015625 4.84835938 -22.58984375 4.21484375 C-16.87386642 -2.80979154 -8.27865251 -1.6244903 0 0 Z " fill="#9497A0" transform="translate(64.10546875,21.609375)"/>
<path d="M0 0 C0 0.99 0 1.98 0 3 C1.423125 2.938125 1.423125 2.938125 2.875 2.875 C6 3 6 3 8 5 C3.05 5.66 -1.9 6.32 -7 7 C-2.15415828 7.20982257 -2.15415828 7.20982257 2.69287109 7.38793945 C4.47097055 7.48540529 6.23821373 7.7406809 8 8 C8.99 9.485 8.99 9.485 10 11 C8.44152344 10.91298828 8.44152344 10.91298828 6.8515625 10.82421875 C-1.68518213 10.49229684 -8.91163006 10.51409251 -16 16 C-17.73215888 18.07177857 -17.73215888 18.07177857 -19 20 C-19.99 19.67 -20.98 19.34 -22 19 C-15.54859967 11.53377265 -15.54859967 11.53377265 -12.6875 8.75 C-10.89904926 7.10420794 -10.89904926 7.10420794 -10.125 4.9375 C-7.95213485 1.19534335 -4.14810303 0 0 0 Z " fill="#80171C" transform="translate(62,5)"/>
<path d="M0 0 C-2.01223155 1.01513924 -4.02735993 2.01275076 -6.0703125 2.96484375 C-6.74835937 3.28582031 -7.42640625 3.60679688 -8.125 3.9375 C-8.80820312 4.25589844 -9.49140625 4.57429688 -10.1953125 4.90234375 C-12.31813594 6.01935177 -12.31813594 6.01935177 -14 9 C-14.45139459 11.0492094 -14.45139459 11.0492094 -14.625 13.1875 C-14.74875 14.445625 -14.8725 15.70375 -15 17 C-15.33 17 -15.66 17 -16 17 C-16.33 15.02 -16.66 13.04 -17 11 C-17.598125 11.825 -18.19625 12.65 -18.8125 13.5 C-19.534375 14.325 -20.25625 15.15 -21 16 C-21.99 16 -22.98 16 -24 16 C-24 19.63 -24 23.26 -24 27 C-24.33 27 -24.66 27 -25 27 C-25.67224126 10.66702708 -25.67224126 10.66702708 -22 6 C-15.13415165 0.48597671 -8.62917406 -0.90130638 0 0 Z " fill="#C0BFC3" transform="translate(60,26)"/>
<path d="M0 0 C3.38231081 1.39957689 5.27928642 2.73064421 7 6 C8.13730132 15.58582545 3.66204992 22.60787927 -2 30 C-2.66 29.67 -3.32 29.34 -4 29 C-3.55780635 25.57299925 -2.51251212 23.02201972 -0.9375 20 C1.76510358 14.19331913 1.55022242 8.28696766 1 2 C0.67 1.34 0.34 0.68 0 0 Z " fill="#931C1F" transform="translate(89,47)"/>
<path d="M0 0 C6.54988608 0.34348408 12.2218172 0.73407059 18 4 C18.33 4.99 18.66 5.98 19 7 C8.62642369 11.59225513 8.62642369 11.59225513 3 11 C3.165 10.401875 3.33 9.80375 3.5 9.1875 C4.1114124 6.88655664 4.1114124 6.88655664 4 4 C2.68 3.34 1.36 2.68 0 2 C0 1.34 0 0.68 0 0 Z " fill="#1D1A1B" transform="translate(76,85)"/>
<path d="M0 0 C0.66 0.33 1.32 0.66 2 1 C0.92319498 2.13125022 -0.16175635 3.25474919 -1.25 4.375 C-1.85328125 5.00148438 -2.4565625 5.62796875 -3.078125 6.2734375 C-6.70316056 9.53007513 -9.83821259 10.48579301 -14.76171875 10.40234375 C-18.97618452 9.64476962 -22.44908974 7.30151591 -26 5 C-22.25682853 2.56456945 -19.05572013 2.89128333 -14.6875 3.0625 C-9.00531255 3.2107904 -5.02585369 2.68824732 0 0 Z " fill="#D77E29" transform="translate(73,80)"/>
<path d="M0 0 C2.54414039 2.21229599 3.54746847 3.65126671 4 7 C4.14416364 11.54115473 4.10746665 15.57013341 3 20 C2.67 20 2.34 20 2 20 C1.731875 18.906875 1.46375 17.81375 1.1875 16.6875 C-0.07108677 12.66943394 -0.07108677 12.66943394 -3 10 C-6.3133541 8.89554863 -8.82695195 8.86695952 -12.3125 8.875 C-13.42238281 8.87242188 -14.53226563 8.86984375 -15.67578125 8.8671875 C-18.86801125 8.99472665 -21.86508827 9.40242227 -25 10 C-25 9.34 -25 8.68 -25 8 C-20.71702469 6.94380997 -16.57014354 6.88297908 -12.1875 6.9375 C-11.49462891 6.94201172 -10.80175781 6.94652344 -10.08789062 6.95117188 C-8.39188932 6.96286844 -6.69593297 6.98080076 -5 7 C-4.70351562 6.37609375 -4.40703125 5.7521875 -4.1015625 5.109375 C-2.98017074 2.96202908 -1.78094582 1.61904165 0 0 Z " fill="#3C4880" transform="translate(94,38)"/>
<path d="M0 0 C6.00300322 1.94419846 10.70288581 4.33399202 15 9 C13 10 13 10 10.7578125 9.2578125 C9.88898438 8.88398438 9.02015625 8.51015625 8.125 8.125 C2.46179482 5.70757212 -1.79019919 4.84539089 -8 4.8125 C-9.216875 4.79832031 -10.43375 4.78414062 -11.6875 4.76953125 C-14.7719563 4.98413375 -16.42673876 5.37241226 -19 7 C-12.69064137 0.52011817 -8.97040612 -1.13418928 0 0 Z " fill="#797A85" transform="translate(62,17)"/>
<path d="M0 0 C0.99 0 1.98 0 3 0 C3.46716875 6.54036249 2.28457654 10.38060399 -1 16 C-1.33 16.66 -1.66 17.32 -2 18 C-4.97 17.01 -7.94 16.02 -11 15 C-11 14.34 -11 13.68 -11 13 C-9.68 13 -8.36 13 -7 13 C-6.7525 12.46375 -6.505 11.9275 -6.25 11.375 C-5 9 -5 9 -2.9375 5.9375 C-0.89527457 3.1164266 -0.89527457 3.1164266 0 0 Z " fill="#D3D3D9" transform="translate(70,49)"/>
<path d="M0 0 C1.64846769 0.44876616 3.29373455 0.90930488 4.9375 1.375 C5.85402344 1.63023438 6.77054688 1.88546875 7.71484375 2.1484375 C10 3 10 3 11 5 C9.4531681 7.66398826 8.55052778 8.83060684 5.5625 9.75 C-2.24330027 10.29777546 -9.56486883 10.70368406 -17 8 C-17 7.67 -17 7.34 -17 7 C-16.37432129 6.98541748 -15.74864258 6.97083496 -15.10400391 6.95581055 C-12.27703598 6.88147196 -9.45126792 6.78476766 -6.625 6.6875 C-5.64015625 6.66494141 -4.6553125 6.64238281 -3.640625 6.61914062 C-2.69960937 6.58369141 -1.75859375 6.54824219 -0.7890625 6.51171875 C0.08024902 6.48553467 0.94956055 6.45935059 1.84521484 6.43237305 C4.38600027 6.18654782 4.38600027 6.18654782 6 3 C4.02 2.34 2.04 1.68 0 1 C0 0.67 0 0.34 0 0 Z " fill="#33A2D8" transform="translate(78,27)"/>
<path d="M0 0 C0.495 1.98 0.495 1.98 1 4 C-7.40293022 11.35256395 -14.95856168 15.97878651 -26.375 16.625 C-28.24285156 16.73714844 -28.24285156 16.73714844 -30.1484375 16.8515625 C-31.55996094 16.92503906 -31.55996094 16.92503906 -33 17 C-33.66 16.01 -34.32 15.02 -35 14 C-33.24623047 13.92652344 -33.24623047 13.92652344 -31.45703125 13.8515625 C-29.90883196 13.77649829 -28.36065599 13.70095205 -26.8125 13.625 C-26.04357422 13.5940625 -25.27464844 13.563125 -24.48242188 13.53125 C-18.52004206 13.22417464 -14.18795452 12.55113756 -10 8 C-8.66167161 6.95848899 -7.30665802 5.93813698 -5.9375 4.9375 C-3.78711607 3.36375534 -1.88786963 1.88786963 0 0 Z " fill="#9597A0" transform="translate(81,58)"/>
<path d="M0 0 C2.125 0.125 2.125 0.125 4 1 C5 4 5 4 4.171875 5.82421875 C1.73809534 9.0135399 0.23117888 10.80436062 -3.8515625 11.453125 C-6.59926257 11.438925 -9.27023 11.30600625 -12 11 C-10.68 10.67 -9.36 10.34 -8 10 C-8 9.34 -8 8.68 -8 8 C-8.99 7.67 -9.98 7.34 -11 7 C-10.18595703 6.61908203 -10.18595703 6.61908203 -9.35546875 6.23046875 C-8.64003906 5.88628906 -7.92460938 5.54210938 -7.1875 5.1875 C-6.47980469 4.85105469 -5.77210937 4.51460937 -5.04296875 4.16796875 C-2.94109463 3.08718519 -2.94109463 3.08718519 -1.37109375 1.35546875 C-0.91863281 0.90816406 -0.46617188 0.46085937 0 0 Z " fill="#2068AF" transform="translate(90,34)"/>
<path d="M0 0 C0.99 0.33 1.98 0.66 3 1 C1.95199219 1.93972656 1.95199219 1.93972656 0.8828125 2.8984375 C-0.02726562 3.71570313 -0.93734375 4.53296875 -1.875 5.375 C-2.77992187 6.18710938 -3.68484375 6.99921875 -4.6171875 7.8359375 C-8.04431842 10.59518717 -8.04431842 10.59518717 -9.265625 14.53125 C-9.26046875 15.5109375 -9.2553125 16.490625 -9.25 17.5 C-9.25773437 18.96953125 -9.25773437 18.96953125 -9.265625 20.46875 C-9.25075045 23.16888152 -9.25075045 23.16888152 -7 25 C-7.33 25.99 -7.66 26.98 -8 28 C-8.99 27.67 -9.98 27.34 -11 27 C-11.36644578 25.44033408 -11.71760862 23.87707349 -12.0625 22.3125 C-12.25972656 21.44238281 -12.45695313 20.57226562 -12.66015625 19.67578125 C-13.21650781 15.29531209 -12.71672338 12.9522998 -10.0390625 9.39453125 C-9.24242187 8.54246094 -8.44578125 7.69039062 -7.625 6.8125 C-6.83351563 5.95269531 -6.04203125 5.09289062 -5.2265625 4.20703125 C-3 2 -3 2 0 0 Z " fill="#5FA0D1" transform="translate(28,8)"/>
<path d="M0 0 C2.10353495 -0.0810206 4.20795952 -0.13919907 6.3125 -0.1875 C7.48425781 -0.22230469 8.65601562 -0.25710937 9.86328125 -0.29296875 C13 0 13 0 14.91796875 1.51171875 C15.45357422 2.24841797 15.45357422 2.24841797 16 3 C13.46835736 5.43037694 12.11179297 5.9878044 8.5625 6.375 C4.82434998 5.98151052 2.89587006 5.36934823 0 3 C0 2.01 0 1.02 0 0 Z " fill="#BCDFF5" transform="translate(65,27)"/>
<path d="M0 0 C1.56679892 0.24474085 3.1313453 0.50731238 4.6875 0.8125 C3.26318513 3.88025511 1.77969926 6.02290099 -0.3125 8.8125 C-5.2625 6.8325 -5.2625 6.8325 -10.3125 4.8125 C-7.13891612 0.4752687 -5.21208833 -0.56187052 0 0 Z " fill="#92C6E9" transform="translate(36.3125,17.1875)"/>
<path d="M0 0 C0 0.66 0 1.32 0 2 C-3.37097383 3.49821059 -5.20442119 4 -9 4 C-9 4.99 -9 5.98 -9 7 C-7.68 7.33 -6.36 7.66 -5 8 C-11.81598387 8.33278764 -16.92122066 8.24201565 -23 5 C-23 4.67 -23 4.34 -23 4 C-22.154375 3.96261719 -21.30875 3.92523438 -20.4375 3.88671875 C-13.58975703 3.48986092 -6.37348702 0 0 0 Z " fill="#7C8089" transform="translate(72,70)"/>
<path d="M0 0 C0.33 0 0.66 0 1 0 C1.11069824 0.59425781 1.22139648 1.18851563 1.33544922 1.80078125 C1.84612943 4.53432858 2.36054042 7.26716154 2.875 10 C3.04902344 10.93457031 3.22304688 11.86914062 3.40234375 12.83203125 C4.43030968 18.27644342 5.5967386 23.63979429 7 29 C5.109375 28.359375 5.109375 28.359375 3 27 C-0.51228357 18.45519072 -0.3674621 9.07767476 0 0 Z " fill="#D9D38A" transform="translate(31,39)"/>
<path d="M0 0 C0.66 0.33 1.32 0.66 2 1 C2.4140625 3.06640625 2.4140625 3.06640625 2.625 5.5625 C2.69976562 6.38878906 2.77453125 7.21507812 2.8515625 8.06640625 C2.90054688 8.70449219 2.94953125 9.34257813 3 10 C3.99 10.33 4.98 10.66 6 11 C5.34 11 4.68 11 4 11 C4.33 12.32 4.66 13.64 5 15 C1.72085432 14.43463006 0.06619192 13.6296988 -2 11 C-2.29296875 8.73828125 -2.29296875 8.73828125 -2.1875 6.3125 C-2.16042969 5.50425781 -2.13335937 4.69601563 -2.10546875 3.86328125 C-2.07066406 3.24839844 -2.03585938 2.63351563 -2 2 C-1.34 2 -0.68 2 0 2 C0 1.34 0 0.68 0 0 Z " fill="#2A367A" transform="translate(47,35)"/>
<path d="M0 0 C0.66 0 1.32 0 2 0 C2.13277344 1.24136719 2.26554687 2.48273437 2.40234375 3.76171875 C2.58061151 5.40365861 2.75900346 7.04558499 2.9375 8.6875 C3.02451172 9.50412109 3.11152344 10.32074219 3.20117188 11.16210938 C3.63758728 15.15450219 4.11302376 19.07652852 5 23 C5.639375 23.103125 6.27875 23.20625 6.9375 23.3125 C7.618125 23.539375 8.29875 23.76625 9 24 C9.33 24.99 9.66 25.98 10 27 C7.75 27 7.75 27 5 26 C0.76238511 19.9084286 -0.12998702 14.03859767 -0.0625 6.75 C-0.05347656 5.48671875 -0.04445312 4.2234375 -0.03515625 2.921875 C-0.02355469 1.95765625 -0.01195312 0.9934375 0 0 Z " fill="#D2D1D5" transform="translate(36,42)"/>
<path d="M0 0 C0.66 0.33 1.32 0.66 2 1 C1.67 2.98 1.34 4.96 1 7 C2.32 7.33 3.64 7.66 5 8 C5.33 10.64 5.66 13.28 6 16 C4.68 15.67 3.36 15.34 2 15 C1.67 13.68 1.34 12.36 1 11 C0.34 12.98 -0.32 14.96 -1 17 C-1.33 17 -1.66 17 -2 17 C-1.85848172 14.9163691 -1.71162064 12.83310062 -1.5625 10.75 C-1.48128906 9.58984375 -1.40007813 8.4296875 -1.31640625 7.234375 C-1.06752213 4.69022624 -0.71885058 2.44046752 0 0 Z " fill="#2D4594" transform="translate(10,32)"/>
<path d="M0 0 C0.66 0.33 1.32 0.66 2 1 C-4.82040185 8.59938176 -4.82040185 8.59938176 -9.3125 10.125 C-12 10 -12 10 -15 8 C-10.16294218 4.821362 -5.4613672 1.96609219 0 0 Z " fill="#CAE4F7" transform="translate(50,4)"/>
<path d="M0 0 C0 0.99 0 1.98 0 3 C1.423125 2.938125 1.423125 2.938125 2.875 2.875 C6 3 6 3 8 5 C6.95199219 5.13277344 5.90398437 5.26554688 4.82421875 5.40234375 C3.44529222 5.58057235 2.06638707 5.75896641 0.6875 5.9375 C-0.00279297 6.02451172 -0.69308594 6.11152344 -1.40429688 6.20117188 C-4.40142288 6.59210135 -7.12450119 7.0415004 -10 8 C-10.33 7.34 -10.66 6.68 -11 6 C-7.57865372 2.33427184 -5.14341528 0 0 0 Z " fill="#A52728" transform="translate(62,5)"/>
<path d="M0 0 C1.13566406 -0.00515625 2.27132812 -0.0103125 3.44140625 -0.015625 C6.4375 0.25 6.4375 0.25 9.4375 2.25 C8.07818359 2.27126953 8.07818359 2.27126953 6.69140625 2.29296875 C-0.56097832 2.57692455 -5.82720301 3.16320017 -11.890625 7.2890625 C-12.44234375 7.60617188 -12.9940625 7.92328125 -13.5625 8.25 C-14.2225 7.92 -14.8825 7.59 -15.5625 7.25 C-10.37800186 1.77747418 -7.5947562 -0.03456089 0 0 Z " fill="#ADADB3" transform="translate(53.5625,23.75)"/>
<path d="M0 0 C0 1.65 0 3.3 0 5 C-7.28571429 9.42857143 -7.28571429 9.42857143 -12 10 C-11.690625 9.401875 -11.38125 8.80375 -11.0625 8.1875 C-9.89790296 5.91043228 -9.89790296 5.91043228 -9 3 C-7.1875 2.05078125 -7.1875 2.05078125 -5 1.3125 C-4.278125 1.06113281 -3.55625 0.80976562 -2.8125 0.55078125 C-1 0 -1 0 0 0 Z " fill="#F4E089" transform="translate(76,74)"/>
<path d="M0 0 C0.66 0.33 1.32 0.66 2 1 C0.92319498 2.13125022 -0.16175635 3.25474919 -1.25 4.375 C-1.85328125 5.00148438 -2.4565625 5.62796875 -3.078125 6.2734375 C-6.3391598 9.20306632 -8.87186369 10.27093788 -13.25 10.125 C-15.10625 10.063125 -15.10625 10.063125 -17 10 C-16.01 9.34 -15.02 8.68 -14 8 C-13.47921875 7.60941406 -12.9584375 7.21882813 -12.421875 6.81640625 C-8.44918645 3.83688984 -4.69481619 1.65699395 0 0 Z " fill="#C55429" transform="translate(73,80)"/>
<path d="M0 0 C0.66 0 1.32 0 2 0 C3.74706142 5.24118425 3.32791716 10.68833136 2 16 C1.67 16 1.34 16 1 16 C0.731875 14.906875 0.46375 13.81375 0.1875 12.6875 C-0.87663739 9.38307337 -1.34654664 8.05039578 -4 6 C-2.84826645 3.53199953 -1.95216435 1.95216435 0 0 Z " fill="#2B2F70" transform="translate(95,42)"/>
<path d="M0 0 C1.23556641 0.24363281 1.23556641 0.24363281 2.49609375 0.4921875 C6.37219122 1.05394076 10.15681159 1.14688061 14.0625 1.125 C15.10374023 1.13080078 15.10374023 1.13080078 16.16601562 1.13671875 C19.90333371 1.12962033 23.36710894 0.89228903 27 0 C25 3 25 3 23.13891602 3.67260742 C19.40796383 4.24368457 15.70600528 4.26760121 11.9375 4.3125 C11.12216797 4.34150391 10.30683594 4.37050781 9.46679688 4.40039062 C7.23791276 4.42419958 5.19236854 4.40573983 3 4 C0.94140625 1.98046875 0.94140625 1.98046875 0 0 Z " fill="#A3A5AC" transform="translate(42,68)"/>
<path d="M0 0 C0.66 0.66 1.32 1.32 2 2 C0.515 4.475 0.515 4.475 -1 7 C-1.33 6.34 -1.66 5.68 -2 5 C-1.0625 2.375 -1.0625 2.375 0 0 Z M-3 7 C-1.67457882 10.97626355 -1.8509346 12.94447504 -3 17 C-5.4369979 19.64779308 -8.12420843 21.84479402 -11 24 C-11 20.2717209 -9.98833268 19.15390701 -8 16 C-7.09653714 14.40011785 -6.2011515 12.79565626 -5.3125 11.1875 C-4.87550781 10.39730469 -4.43851562 9.60710937 -3.98828125 8.79296875 C-3.66214844 8.20128906 -3.33601563 7.60960938 -3 7 Z " fill="#A62224" transform="translate(89,61)"/>
<path d="M0 0 C1.32 0 2.64 0 4 0 C5.36363208 1.97946592 6.69418644 3.9819245 8 6 C9.63978318 7.04349839 11.30094366 8.05607981 13 9 C13 9.66 13 10.32 13 11 C6.25 10.125 6.25 10.125 4 9 C3 6.66666667 2 4.33333333 1 2 C0.34 1.67 -0.32 1.34 -1 1 C-0.67 0.67 -0.34 0.34 0 0 Z " fill="#2560AA" transform="translate(49,30)"/>
<path d="M0 0 C0.99 0.33 1.98 0.66 3 1 C2.79375 1.61875 2.5875 2.2375 2.375 2.875 C2.25125 3.57625 2.1275 4.2775 2 5 C2.66 5.66 3.32 6.32 4 7 C2.6875 9 2.6875 9 1 11 C0.01 11 -0.98 11 -2 11 C-3.32789969 8.8128711 -4.04752686 7.52279544 -3.8125 4.9375 C-2.89199398 2.74244718 -1.78403777 1.55133719 0 0 Z " fill="#8BC9E9" transform="translate(22,16)"/>
<path d="M0 0 C0.66 0 1.32 0 2 0 C1.67 0.86625 1.34 1.7325 1 2.625 C0.01268659 5.95718275 -0.16420974 8.55159538 0 12 C0.66 12 1.32 12 2 12 C2 14.64 2 17.28 2 20 C1.67 19.01 1.34 18.02 1 17 C-1.01508358 16.26676204 -1.01508358 16.26676204 -3 16 C-3.32712342 9.86946489 -3.39366878 5.37330889 0 0 Z " fill="#3669AF" transform="translate(14,23)"/>
<path d="M0 0 C1.27310312 0.93441535 2.543388 1.87267111 3.8125 2.8125 C4.52019531 3.33457031 5.22789063 3.85664062 5.95703125 4.39453125 C7.78531393 5.83128877 9.39896688 7.31815763 11 9 C10 10 10 10 7.67578125 10.3125 C4.15875678 9.90175262 3.35976889 8.72598449 1.1875 6 C0.58292969 5.2575 -0.02164063 4.515 -0.64453125 3.75 C-1.31548828 2.88375 -1.31548828 2.88375 -2 2 C-1.34 1.34 -0.68 0.68 0 0 Z " fill="#EDA722" transform="translate(41,74)"/>
<path d="M0 0 C-1.49478114 3.80489745 -3.69442214 5.66190835 -7 8 C-10.47325181 9.1577506 -13.36067448 9.06866652 -17 9 C-17 8.34 -17 7.68 -17 7 C-16.00419922 6.74476562 -16.00419922 6.74476562 -14.98828125 6.484375 C-10.22862433 5.178075 -4.12729672 0 0 0 Z " fill="#525B65" transform="translate(80,68)"/>
<path d="M0 0 C0 0.66 0 1.32 0 2 C-2.03959477 2.50838564 -4.08179138 3.00633886 -6.125 3.5 C-7.26195313 3.7784375 -8.39890625 4.056875 -9.5703125 4.34375 C-12.81466698 4.96453765 -15.70814457 5.12006768 -19 5 C-19 4.34 -19 3.68 -19 3 C-6.51480638 -0.44419134 -6.51480638 -0.44419134 0 0 Z " fill="#2282C2" transform="translate(78,43)"/>
<path d="M0 0 C0.08131463 1.43655854 0.13933559 2.8744483 0.1875 4.3125 C0.22230469 5.11300781 0.25710937 5.91351563 0.29296875 6.73828125 C-0.06198392 9.47851584 -0.89366282 10.29171079 -3 12 C-3.99 11.67 -4.98 11.34 -6 11 C-5.835 10.401875 -5.67 9.80375 -5.5 9.1875 C-4.8885876 6.88655664 -4.8885876 6.88655664 -5 4 C-1.45714286 0 -1.45714286 0 0 0 Z " fill="#B9E0F5" transform="translate(29,10)"/>
<path d="M0 0 C0.33 1.32 0.66 2.64 1 4 C0.30132812 4.62648438 -0.39734375 5.25296875 -1.1171875 5.8984375 C-2.02726562 6.71570313 -2.93734375 7.53296875 -3.875 8.375 C-4.77992187 9.18710937 -5.68484375 9.99921875 -6.6171875 10.8359375 C-8.10896183 12.19076205 -9.57505435 13.57505435 -11 15 C-10.89050788 10.51082328 -9.70376466 8.34172788 -6.625 5.25 C-4.47959789 3.22327971 -2.4723975 1.648265 0 0 Z " fill="#CB6A33" transform="translate(51,9)"/>
<path d="M0 0 C0.66 0 1.32 0 2 0 C0.42811602 6.9769587 -1.18299913 11.60757077 -7 16 C-9.19140625 15.64453125 -9.19140625 15.64453125 -11 15 C-11 14.34 -11 13.68 -11 13 C-9.68 13 -8.36 13 -7 13 C-6.7525 12.46375 -6.505 11.9275 -6.25 11.375 C-5 9 -5 9 -2.9375 5.9375 C-0.89527457 3.1164266 -0.89527457 3.1164266 0 0 Z " fill="#DEDFE3" transform="translate(70,49)"/>
<path d="M0 0 C0.99 0.33 1.98 0.66 3 1 C2.73445313 1.50789063 2.46890625 2.01578125 2.1953125 2.5390625 C-1.46912098 9.68069563 -3.32505913 16.00727914 -4 24 C-4.33 24 -4.66 24 -5 24 C-5.48194844 15.45880267 -5.06653464 8.64312534 -1 1 C-0.67 0.67 -0.34 0.34 0 0 Z " fill="#C6582D" transform="translate(39,25)"/>
<path d="M0 0 C0 0.33 0 0.66 0 1 C-0.66386719 1.12117187 -1.32773438 1.24234375 -2.01171875 1.3671875 C-6.53424459 2.22547708 -10.79938524 3.03971311 -15 5 C-15.66 4.34 -16.32 3.68 -17 3 C-15.53953245 0.0790649 -13.22796681 -0.46268747 -10.27734375 -1.53515625 C-6.45350246 -2.31566588 -3.65156141 -1.23892262 0 0 Z " fill="#96C0E5" transform="translate(69,3)"/>
<path d="M0 0 C3.63 0 7.26 0 11 0 C9.875 2.5 9.875 2.5 8 5 C4.8125 5.3125 4.8125 5.3125 2 5 C1.34 3.35 0.68 1.7 0 0 Z " fill="#FBF3C3" transform="translate(54,78)"/>
<path d="M0 0 C-7.209025 3.3161515 -14.12944269 3.67942955 -22 4 C-22.66 3.01 -23.32 2.02 -24 1 C-22.81921875 0.93941406 -21.6384375 0.87882812 -20.421875 0.81640625 C-18.8645723 0.73197418 -17.30728121 0.64732751 -15.75 0.5625 C-14.97269531 0.52318359 -14.19539063 0.48386719 -13.39453125 0.44335938 C-12.64042969 0.40146484 -11.88632812 0.35957031 -11.109375 0.31640625 C-10.41811523 0.27974854 -9.72685547 0.24309082 -9.01464844 0.20532227 C-6.96846046 0.05509428 -6.96846046 0.05509428 -4.93066406 -0.58227539 C-3 -1 -3 -1 0 0 Z " fill="#8E9199" transform="translate(70,71)"/>
<path d="M0 0 C3 3 3 3 3.3125 6.875 C3.19349602 10.26974516 2.5337071 12.9325858 1 16 C0.01 15.67 -0.98 15.34 -2 15 C-1.34 10.05 -0.68 5.1 0 0 Z " fill="#76151B" transform="translate(93,50)"/>
<path d="M0 0 C0.66 0.33 1.32 0.66 2 1 C2.70491267 3.32206525 3.37212429 5.65593068 4 8 C4.33 8.33 4.66 8.66 5 9 C4.71269945 11.33944736 4.38063221 13.6739143 4 16 C3.34 16 2.68 16 2 16 C2 13.36 2 10.72 2 8 C1.34 8 0.68 8 0 8 C-1.125 2.25 -1.125 2.25 0 0 Z " fill="#4B88C2" transform="translate(14,27)"/>
<path d="M0 0 C1.65 1.32 3.3 2.64 5 4 C4.45773019 7.79588866 2.79872437 9.47211993 0 12 C-0.66 11.67 -1.32 11.34 -2 11 C-1.67 10.34 -1.34 9.68 -1 9 C-0.77532169 7.46331135 -0.59203195 5.92031946 -0.4375 4.375 C-0.35371094 3.55773438 -0.26992187 2.74046875 -0.18359375 1.8984375 C-0.12300781 1.27195313 -0.06242187 0.64546875 0 0 Z " fill="#A1A1A5" transform="translate(77,49)"/>
<path d="M0 0 C3.35433109 0.94933899 6.69246505 1.89748835 10 3 C9.67 4.65 9.34 6.3 9 8 C7.39125 7.071875 7.39125 7.071875 5.75 6.125 C3.20219016 4.6676321 0.64740645 3.27075509 -2 2 C-1.34 1.34 -0.68 0.68 0 0 Z " fill="#68B8E3" transform="translate(26,22)"/>
<path d="M0 0 C0.66 1.32 1.32 2.64 2 4 C-2.95 3.67 -7.9 3.34 -13 3 C-12.67 2.34 -12.34 1.68 -12 1 C-8.01624339 -0.17169312 -4.12560776 -0.08089427 0 0 Z " fill="#741214" transform="translate(67,10)"/>
<path d="M0 0 C0.33 0.99 0.66 1.98 1 3 C-0.21484375 4.82421875 -0.21484375 4.82421875 -1.9375 6.6875 C-2.50339844 7.31011719 -3.06929688 7.93273438 -3.65234375 8.57421875 C-4.09707031 9.04472656 -4.54179688 9.51523437 -5 10 C-5.99 9.67 -6.98 9.34 -8 9 C-6.68994234 5.06982701 -4.75047804 0 0 0 Z " fill="#254C9D" transform="translate(94,35)"/>
<path d="M0 0 C0.66 0.33 1.32 0.66 2 1 C1.360625 1.66 0.72125 2.32 0.0625 3 C-2.58912502 6.85690912 -2.68667121 9.37840033 -3 14 C-3.33 14 -3.66 14 -4 14 C-4.33 12.02 -4.66 10.04 -5 8 C-6.65 9.65 -8.3 11.3 -10 13 C-8.25949797 6.61815923 -5.26499853 3.76071324 0 0 Z " fill="#C8C9D3" transform="translate(48,29)"/>
<path d="M0 0 C5.47462825 0.40058256 9.09173639 2.26207233 13 6 C14.60558297 8.2741835 15.76802993 10.48678105 17 13 C14 12 14 12 12.4375 9.8125 C9.40693672 6.31569621 6.05352619 4.48087885 2.046875 2.234375 C1.37140625 1.82703125 0.6959375 1.4196875 0 1 C0 0.67 0 0.34 0 0 Z " fill="#66626E" transform="translate(66,15)"/>
<path d="M0 0 C0.33 0 0.66 0 1 0 C1.10957031 0.81082031 1.21914063 1.62164062 1.33203125 2.45703125 C2.38696713 9.82442899 3.85754566 16.87276855 6 24 C5.01 23.67 4.02 23.34 3 23 C-0.17198184 15.59870903 -0.14315943 7.90558189 0 0 Z " fill="#EAA837" transform="translate(33,40)"/>
<path d="M0 0 C2.97 0 5.94 0 9 0 C9.9906614 2.64176374 10.21541532 4.4062127 9.24609375 7.078125 C6.47562426 12.76218787 6.47562426 12.76218787 4 14 C4.309375 13.34 4.61875 12.68 4.9375 12 C6.24960255 8.29523985 6.60264135 4.90736009 7 1 C4.69 1 2.38 1 0 1 C0 0.67 0 0.34 0 0 Z " fill="#C8BFB9" transform="translate(66,48)"/>
<path d="M0 0 C0.33 0.66 0.66 1.32 1 2 C1.99 2.33 2.98 2.66 4 3 C3.36191406 3.40992188 2.72382812 3.81984375 2.06640625 4.2421875 C0.82697266 5.05042969 0.82697266 5.05042969 -0.4375 5.875 C-1.26121094 6.40867187 -2.08492187 6.94234375 -2.93359375 7.4921875 C-5.11038871 8.83834306 -5.11038871 8.83834306 -6 11 C-6.99 10.67 -7.98 10.34 -9 10 C-7.8758824 8.70756532 -6.75067408 7.41607925 -5.625 6.125 C-4.99851562 5.40570312 -4.37203125 4.68640625 -3.7265625 3.9453125 C-2.52573166 2.5923402 -1.2791655 1.2791655 0 0 Z " fill="#A02226" transform="translate(49,14)"/>
<path d="M0 0 C4.71403788 0.47939368 8.66579301 0.96834048 13 3 C12.67 3.66 12.34 4.32 12 5 C7.38 4.34 2.76 3.68 -2 3 C-1.34 2.67 -0.68 2.34 0 2 C0 1.34 0 0.68 0 0 Z " fill="#0F0C0E" transform="translate(25,93)"/>
<path d="M0 0 C4.95 0 9.9 0 15 0 C15 0.33 15 0.66 15 1 C11.7 1.33 8.4 1.66 5 2 C6.83333333 5.16666667 6.83333333 5.16666667 10 7 C8.02 7 6.04 7 4 7 C3.566875 5.824375 3.566875 5.824375 3.125 4.625 C2.15087746 1.90328368 2.15087746 1.90328368 0 0 Z " fill="#91C5E3" transform="translate(60,26)"/>
<path d="M0 0 C0.99 0 1.98 0 3 0 C3 4.95 3 9.9 3 15 C0.22957891 12.22957891 0.60203894 10.23466195 0.375 6.375 C0.30023438 5.18648437 0.22546875 3.99796875 0.1484375 2.7734375 C0.09945312 1.85820313 0.05046875 0.94296875 0 0 Z " fill="#DFE0E4" transform="translate(38,47)"/>
<path d="M0 0 C-1.22976562 0.50660156 -1.22976562 0.50660156 -2.484375 1.0234375 C-3.56203125 1.46945313 -4.6396875 1.91546875 -5.75 2.375 C-6.81734375 2.81585938 -7.8846875 3.25671875 -8.984375 3.7109375 C-11.37555926 4.73307585 -13.69383183 5.80213595 -16 7 C-16.66 6.34 -17.32 5.68 -18 5 C-16.27398621 4.18082358 -14.5440353 3.36993984 -12.8125 2.5625 C-11.84957031 2.11003906 -10.88664062 1.65757812 -9.89453125 1.19140625 C-3.16062176 -1.58031088 -3.16062176 -1.58031088 0 0 Z " fill="#B6D9F4" transform="translate(47,2)"/>
<path d="M0 0 C2.875 0.25 2.875 0.25 6 1 C7.1953125 3.046875 7.1953125 3.046875 8 5 C-2.37357631 9.59225513 -2.37357631 9.59225513 -8 9 C-8 8.67 -8 8.34 -8 8 C-3.71 7.01 0.58 6.02 5 5 C5 4.01 5 3.02 5 2 C3.35 1.67 1.7 1.34 0 1 C0 0.67 0 0.34 0 0 Z " fill="#000000" transform="translate(87,87)"/>
<path d="M0 0 C0.66 0.33 1.32 0.66 2 1 C1.01 1.99 0.02 2.98 -1 4 C-1.66 3.67 -2.32 3.34 -3 3 C-2.01 2.01 -1.02 1.02 0 0 Z M-6 6 C-5.34 6 -4.68 6 -4 6 C-4.33 7.32 -4.66 8.64 -5 10 C-5.66 10 -6.32 10 -7 10 C-7 13.63 -7 17.26 -7 21 C-7.33 21 -7.66 21 -8 21 C-8.05386629 18.87527424 -8.09273071 16.75016348 -8.125 14.625 C-8.14820313 13.44164062 -8.17140625 12.25828125 -8.1953125 11.0390625 C-8 8 -8 8 -6 6 Z " fill="#CFC5C0" transform="translate(43,32)"/>
<path d="M0 0 C3.624581 1.20819367 3.40170957 1.80341913 5 5 C5.99 5.33 6.98 5.66 8 6 C7.67 6.66 7.34 7.32 7 8 C2.05 6.02 2.05 6.02 -3 4 C-2.01 2.68 -1.02 1.36 0 0 Z " fill="#82C0E8" transform="translate(29,18)"/>
<path d="M0 0 C2.97 0 5.94 0 9 0 C9 0.66 9 1.32 9 2 C10.32 2.33 11.64 2.66 13 3 C11.20841511 3.02696365 9.41671527 3.04637917 7.625 3.0625 C6.62726562 3.07410156 5.62953125 3.08570312 4.6015625 3.09765625 C2 3 2 3 0 2 C0 1.34 0 0.68 0 0 Z " fill="#6B727A" transform="translate(54,75)"/>
<path d="M0 0 C4.62 0 9.24 0 14 0 C8.82976131 3.44682579 5.02634681 3.06347297 -1 2 C-0.67 1.34 -0.34 0.68 0 0 Z " fill="#D8EBF9" transform="translate(47,1)"/>
<path d="M0 0 C3.63 0.33 7.26 0.66 11 1 C9.68 1.33 8.36 1.66 7 2 C7.33 3.32 7.66 4.64 8 6 C7.34 6 6.68 6 6 6 C6 5.34 6 4.68 6 4 C4.02 3.34 2.04 2.68 0 2 C0 1.34 0 0.68 0 0 Z " fill="#191215" transform="translate(76,85)"/>
<path d="M0 0 C2.45823172 3.68734758 3.01242616 6.69699971 4 11 C2.125 10.5 2.125 10.5 0 9 C-0.98494554 6.34822355 -1.45912382 3.79452693 -2 1 C-1.34 0.67 -0.68 0.34 0 0 Z " fill="#F3DA6C" transform="translate(34,57)"/>
<path d="M0 0 C0.3125 2.3125 0.3125 2.3125 0 5 C-2.5 6.8125 -2.5 6.8125 -5 8 C-5.33 6.02 -5.66 4.04 -6 2 C-1.125 0 -1.125 0 0 0 Z " fill="#F0D554" transform="translate(76,74)"/>
<path d="M0 0 C0.99 0.33 1.98 0.66 3 1 C2.34 2.32 1.68 3.64 1 5 C-2.3 5 -5.6 5 -9 5 C-9 4.67 -9 4.34 -9 4 C-7.6078125 3.566875 -7.6078125 3.566875 -6.1875 3.125 C-2.90208333 2.1125 -2.90208333 2.1125 0 0 Z " fill="#7BC8EC" transform="translate(81,29)"/>
<path d="M0 0 C3.125 1.5 3.125 1.5 5 3 C2 4 2 4 -0.0625 3.0625 C-4.34786271 1.51247519 -8.4884026 1.8423131 -13 2 C-8.76146751 -0.82568832 -4.97857829 -0.5470094 0 0 Z " fill="#565965" transform="translate(66,15)"/>
<path d="M0 0 C2.8203125 0.0234375 2.8203125 0.0234375 6.125 0.375 C7.22070312 0.48585938 8.31640625 0.59671875 9.4453125 0.7109375 C10.28835937 0.80632813 11.13140625 0.90171875 12 1 C11.67 1.66 11.34 2.32 11 3 C6.00124898 4.03747663 2.54893453 4.27446726 -2 2 C-1.34 1.34 -0.68 0.68 0 0 Z " fill="#A6D1EF" transform="translate(31,15)"/>
<path d="M0 0 C2.5 1.625 2.5 1.625 5 4 C5.3125 7.25 5.3125 7.25 5 10 C3.0625 8.9375 3.0625 8.9375 1 7 C0.25 3.3125 0.25 3.3125 0 0 Z " fill="#F1D85F" transform="translate(43,70)"/>
<path d="M0 0 C0 3 0 3 0 3 Z M-2 3 C-1.67 3.66 -1.34 4.32 -1 5 C-1.9375 7.625 -1.9375 7.625 -3 10 C-5.475 9.01 -5.475 9.01 -8 8 C-7.195625 7.360625 -6.39125 6.72125 -5.5625 6.0625 C-3.7249496 4.59396498 -3.7249496 4.59396498 -2 3 Z " fill="#CCCCD1" transform="translate(71,57)"/>
<path d="M0 0 C3.63 0.33 7.26 0.66 11 1 C7.09567131 2.95216435 4.27786748 3.50639991 0 4 C0 2.68 0 1.36 0 0 Z " fill="#2166AE" transform="translate(64,41)"/>
<path d="M0 0 C-4.30769231 3.93846154 -4.30769231 3.93846154 -7.8125 4.25 C-8.534375 4.1675 -9.25625 4.085 -10 4 C-8.34655494 1.30227385 -7.50773114 0.16098792 -4.4375 -0.8125 C-2 -1 -2 -1 0 0 Z " fill="#D06928" transform="translate(64,85)"/>
<path d="M0 0 C0 0.99 0 1.98 0 3 C-0.99 3.66 -1.98 4.32 -3 5 C-1.125 1.125 -1.125 1.125 0 0 Z M-6 5 C-5.01 5 -4.02 5 -3 5 C-3.75 6.9375 -3.75 6.9375 -5 9 C-7.125 9.75 -7.125 9.75 -9 10 C-7.125 6.125 -7.125 6.125 -6 5 Z " fill="#AF2626" transform="translate(80,78)"/>
<path d="M0 0 C-0.33 3.63 -0.66 7.26 -1 11 C-1.33 11 -1.66 11 -2 11 C-2.309375 9.88625 -2.61875 8.7725 -2.9375 7.625 C-3.82326483 4.2054845 -3.82326483 4.2054845 -5 2 C-2 0 -2 0 0 0 Z " fill="#201B4A" transform="translate(98,47)"/>
<path d="M0 0 C2.0625 0.4375 2.0625 0.4375 4 1 C4 1.99 4 2.98 4 4 C2.02 4.66 0.04 5.32 -2 6 C-1.125 1.125 -1.125 1.125 0 0 Z " fill="#261E25" transform="translate(88,88)"/>
<path d="M0 0 C1.875 0.625 1.875 0.625 4 2 C5.25 5.125 5.25 5.125 6 8 C1.125 6.125 1.125 6.125 0 5 C-0.04063832 3.33382885 -0.042721 1.66611905 0 0 Z " fill="#F6E28C" transform="translate(48,75)"/>
<path d="M0 0 C0.66 0.33 1.32 0.66 2 1 C1.01 2.98 0.02 4.96 -1 7 C-3.64 7 -6.28 7 -9 7 C-9 6.67 -9 6.34 -9 6 C-7.02 6 -5.04 6 -3 6 C-3.33 5.01 -3.66 4.02 -4 3 C-2.68 2.01 -1.36 1.02 0 0 Z " fill="#235CA8" transform="translate(87,38)"/>
<path d="M0 0 C1.32 0.33 2.64 0.66 4 1 C2.8125 3.5 2.8125 3.5 1 6 C-1.6875 6.3125 -1.6875 6.3125 -4 6 C-3.525625 5.566875 -3.05125 5.13375 -2.5625 4.6875 C-0.76313043 2.97690387 -0.76313043 2.97690387 0 0 Z " fill="#3194CF" transform="translate(85,30)"/>
<path d="M0 0 C0 3.41761705 -0.75938546 5.82954062 -2 9 C-2.99 9.495 -2.99 9.495 -4 10 C-4.25 6.6875 -4.25 6.6875 -4 3 C-2 1.0625 -2 1.0625 0 0 Z " fill="#D8ECF9" transform="translate(33,7)"/>
<path d="M0 0 C0 3 0 3 -1.53125 4.60546875 C-2.1809375 5.12753906 -2.830625 5.64960937 -3.5 6.1875 C-4.1496875 6.71730469 -4.799375 7.24710937 -5.46875 7.79296875 C-5.9740625 8.19128906 -6.479375 8.58960937 -7 9 C-7 6 -7 6 -5.46875 4.39453125 C-4.49421875 3.61142578 -4.49421875 3.61142578 -3.5 2.8125 C-2.8503125 2.28269531 -2.200625 1.75289063 -1.53125 1.20703125 C-1.0259375 0.80871094 -0.520625 0.41039063 0 0 Z " fill="#9C1D22" transform="translate(85,76)"/>
<path d="M0 0 C0.99 0 1.98 0 3 0 C3.33 0.99 3.66 1.98 4 3 C2.35 4.32 0.7 5.64 -1 7 C-1.04254356 5.00045254 -1.04080783 2.99958364 -1 1 C-0.67 0.67 -0.34 0.34 0 0 Z " fill="#EEC61C" transform="translate(77,72)"/>
<path d="M0 0 C0 0.66 0 1.32 0 2 C3.3 1.67 6.6 1.34 10 1 C6.95461118 3.03025922 5.57642406 3.67487054 2 4 C-1.8125 3.0625 -1.8125 3.0625 -5 2 C-2 0 -2 0 0 0 Z " fill="#29529B" transform="translate(59,46)"/>
<path d="M0 0 C0.33 0.66 0.66 1.32 1 2 C1.99 2.33 2.98 2.66 4 3 C3.34 4.32 2.68 5.64 2 7 C1.01 6.67 0.02 6.34 -1 6 C-0.67 4.02 -0.34 2.04 0 0 Z " fill="#66BBE4" transform="translate(19,25)"/>
<path d="M0 0 C0.99 0.33 1.98 0.66 3 1 C-0.96 4.465 -0.96 4.465 -5 8 C-5.33 7.01 -5.66 6.02 -6 5 C-1.60546875 0.99609375 -1.60546875 0.99609375 0 0 Z " fill="#5CB8E6" transform="translate(28,8)"/>
<path d="M0 0 C0.33 1.32 0.66 2.64 1 4 C-0.28650706 4.69710731 -1.57940665 5.38242876 -2.875 6.0625 C-3.95394531 6.63677734 -3.95394531 6.63677734 -5.0546875 7.22265625 C-5.69664063 7.47917969 -6.33859375 7.73570313 -7 8 C-7.66 7.67 -8.32 7.34 -9 7 C-6.03 4.69 -3.06 2.38 0 0 Z " fill="#7C7F87" transform="translate(81,62)"/>
<path d="M0 0 C4.67692308 1.47692308 4.67692308 1.47692308 6.3125 4.125 C6.539375 4.74375 6.76625 5.3625 7 6 C4.0625 5.25 4.0625 5.25 1 4 C0.125 1.875 0.125 1.875 0 0 Z " fill="#6D737F" transform="translate(70,21)"/>
<path d="M0 0 C4.875 4.75 4.875 4.75 6 7 C1.25 6.25 1.25 6.25 -1 4 C-0.625 1.875 -0.625 1.875 0 0 Z " fill="#2D2750" transform="translate(38,75)"/>
<path d="M0 0 C1.32 0.33 2.64 0.66 4 1 C4 1.66 4 2.32 4 3 C4.66 3 5.32 3 6 3 C6 3.66 6 4.32 6 5 C4.35 4.67 2.7 4.34 1 4 C0.67 2.68 0.34 1.36 0 0 Z " fill="#161641" transform="translate(33,77)"/>
<path d="M0 0 C0.99 0.495 0.99 0.495 2 1 C2 1.66 2 2.32 2 3 C2.639375 3.103125 3.27875 3.20625 3.9375 3.3125 C4.618125 3.539375 5.29875 3.76625 6 4 C6.33 4.99 6.66 5.98 7 7 C4.625 6.6875 4.625 6.6875 2 6 C0 3 0 3 0 0 Z " fill="#E7E5E0" transform="translate(39,62)"/>
<path d="M0 0 C0.33 0.99 0.66 1.98 1 3 C-0.40445835 5.2636564 -2.1967913 7.0208685 -4 9 C-4.66 8.67 -5.32 8.34 -6 8 C-4.02 5.36 -2.04 2.72 0 0 Z " fill="#2C96D1" transform="translate(21,14)"/>
<path d="M0 0 C2.64 0 5.28 0 8 0 C7.01 1.485 7.01 1.485 6 3 C3.5625 2.625 3.5625 2.625 1 2 C0.67 1.34 0.34 0.68 0 0 Z " fill="#FDF8DB" transform="translate(55,78)"/>
<path d="M0 0 C1.0326802 2.78823655 1.04509293 3.8677274 0.0625 6.75 C-0.288125 7.4925 -0.63875 8.235 -1 9 C-1.66 9 -2.32 9 -3 9 C-3 7.35 -3 5.7 -3 4 C-2.34 4 -1.68 4 -1 4 C-0.67 2.68 -0.34 1.36 0 0 Z " fill="#2C6BB0" transform="translate(19,39)"/>
<path d="M0 0 C-1.65 0.33 -3.3 0.66 -5 1 C-4.67 2.32 -4.34 3.64 -4 5 C-5.32 4.67 -6.64 4.34 -8 4 C-5.97675095 -0.48005146 -4.79569304 -1.43870791 0 0 Z " fill="#000000" transform="translate(21,88)"/>
<path d="M0 0 C0.33 0.66 0.66 1.32 1 2 C1.99 2.33 2.98 2.66 4 3 C2.02 3.99 0.04 4.98 -2 6 C-2.33 5.01 -2.66 4.02 -3 3 C-2.01 2.01 -1.02 1.02 0 0 Z " fill="#8E2022" transform="translate(49,14)"/>
</svg>
